<?xml version="1.0" encoding="UTF-8" standalone="no"?>
<!-- Created with Inkscape (http://www.inkscape.org/) -->

<svg
   height="112.87234"
   width="200.24374"
   version="1.1"
   id="svg1"
   xml:space="preserve"
   xmlns="http://www.w3.org/2000/svg"
   xmlns:svg="http://www.w3.org/2000/svg"
   xmlns:rdf="http://www.w3.org/1999/02/22-rdf-syntax-ns#"
   xmlns:cc="http://creativecommons.org/ns#"
   xmlns:dc="http://purl.org/dc/elements/1.1/"><defs
     id="defs4" /><metadata
     id="metadata7"><rdf:RDF><cc:Work
         rdf:about=""><dc:format>image/svg+xml</dc:format><dc:type
           rdf:resource="http://purl.org/dc/dcmitype/StillImage" /><dc:title /></cc:Work></rdf:RDF></metadata><g
     id="layer1"
     transform="translate(-313.98184,-300.75366)"><path
       style="opacity:0.353562;fill:none;stroke:#000000;stroke-opacity:1"
       d="m 314,412 c 0,0 12.19644,0.44312 15.125,-0.75 6.75,-2.75 30.25,-21.875 46.25,-40.125 33.74407,-43.80744 79.1958,-76.42071 137.375,-68.75 0,0 -41.625,0 -55.875,4.25 -14.25,4.25 -66.125,33.375 -78.125,64.625 -12,31.25 8.96518,41.80968 17,41.875 15.375,0.125 40.375,-11.5 76.125,-51.25 35.75,-39.75 41.875,-58.625 41.875,-58.625 0,0 -47.375,65.12388 -47.375,93.125 0,18.13577 22.625,15 22.625,15"
       id="path1" /></g></svg>
